<mxfile host="app.diagrams.net" agent="Mozilla/5.0 (Windows NT 10.0; Win64; x64) AppleWebKit/537.36 (KHTML, like Gecko) Chrome/130.0.0.0 Safari/537.36" version="24.8.2">
  <diagram name="Page-1" id="kgoCGLObX474WBowK5T7">
    <mxGraphModel dx="2150" dy="1670" grid="0" gridSize="10" guides="1" tooltips="1" connect="1" arrows="1" fold="1" page="0" pageScale="1" pageWidth="827" pageHeight="1169" math="0" shadow="0">
      <root>
        <mxCell id="0" />
        <mxCell id="1" parent="0" />
        <mxCell id="kSKsc2fcSLRvaro6fBuU-3" value="BADGE" style="swimlane;whiteSpace=wrap;html=1;startSize=23;" parent="1" vertex="1">
          <mxGeometry x="378" y="-114" width="200" height="200" as="geometry">
            <mxRectangle x="6" y="35" width="178" height="26" as="alternateBounds" />
          </mxGeometry>
        </mxCell>
        <mxCell id="kSKsc2fcSLRvaro6fBuU-4" value="MAITRE POKEMON" style="swimlane;whiteSpace=wrap;html=1;" parent="1" vertex="1">
          <mxGeometry x="378" y="435" width="200" height="200" as="geometry">
            <mxRectangle x="6" y="35" width="178" height="26" as="alternateBounds" />
          </mxGeometry>
        </mxCell>
        <mxCell id="kSKsc2fcSLRvaro6fBuU-5" value="ARENE" style="swimlane;whiteSpace=wrap;html=1;" parent="1" vertex="1">
          <mxGeometry x="697" y="108" width="200" height="200" as="geometry">
            <mxRectangle x="6" y="35" width="178" height="26" as="alternateBounds" />
          </mxGeometry>
        </mxCell>
        <mxCell id="kSKsc2fcSLRvaro6fBuU-11" value="&lt;u&gt;nomVilleConnue&lt;/u&gt;" style="text;html=1;align=center;verticalAlign=middle;resizable=0;points=[];autosize=1;strokeColor=none;fillColor=none;fontSize=16;" parent="kSKsc2fcSLRvaro6fBuU-5" vertex="1">
          <mxGeometry x="31" y="90" width="135" height="31" as="geometry" />
        </mxCell>
        <mxCell id="kSKsc2fcSLRvaro6fBuU-6" value="Dresseur" style="swimlane;whiteSpace=wrap;html=1;" parent="1" vertex="1">
          <mxGeometry x="975" y="-114" width="200" height="200" as="geometry">
            <mxRectangle x="6" y="35" width="178" height="26" as="alternateBounds" />
          </mxGeometry>
        </mxCell>
        <mxCell id="kSKsc2fcSLRvaro6fBuU-22" value="Défend" style="ellipse;whiteSpace=wrap;html=1;" parent="1" vertex="1">
          <mxGeometry x="418" y="170" width="120" height="80" as="geometry" />
        </mxCell>
        <mxCell id="kSKsc2fcSLRvaro6fBuU-24" value="" style="endArrow=none;html=1;rounded=0;fontSize=12;startSize=8;endSize=8;curved=1;entryX=0.5;entryY=1;entryDx=0;entryDy=0;exitX=0.5;exitY=0;exitDx=0;exitDy=0;" parent="1" source="kSKsc2fcSLRvaro6fBuU-22" target="kSKsc2fcSLRvaro6fBuU-3" edge="1">
          <mxGeometry width="50" height="50" relative="1" as="geometry">
            <mxPoint x="230" y="-7" as="sourcePoint" />
            <mxPoint x="388" y="-4" as="targetPoint" />
          </mxGeometry>
        </mxCell>
        <mxCell id="kSKsc2fcSLRvaro6fBuU-25" value="" style="endArrow=none;html=1;rounded=0;fontSize=12;startSize=8;endSize=8;curved=1;entryX=0.5;entryY=1;entryDx=0;entryDy=0;exitX=0.5;exitY=0;exitDx=0;exitDy=0;" parent="1" source="kSKsc2fcSLRvaro6fBuU-4" target="kSKsc2fcSLRvaro6fBuU-22" edge="1">
          <mxGeometry width="50" height="50" relative="1" as="geometry">
            <mxPoint x="488" y="180" as="sourcePoint" />
            <mxPoint x="488" y="96" as="targetPoint" />
          </mxGeometry>
        </mxCell>
        <mxCell id="kSKsc2fcSLRvaro6fBuU-33" value="Peut posséder &lt;u&gt;Pokemon Permanent&lt;/u&gt;" style="ellipse;whiteSpace=wrap;html=1;" parent="1" vertex="1">
          <mxGeometry x="418" y="771" width="120" height="80" as="geometry" />
        </mxCell>
        <mxCell id="kSKsc2fcSLRvaro6fBuU-34" value="" style="endArrow=none;html=1;rounded=0;fontSize=12;startSize=8;endSize=8;curved=1;entryX=0.5;entryY=0;entryDx=0;entryDy=0;exitX=0.5;exitY=1;exitDx=0;exitDy=0;" parent="1" source="kSKsc2fcSLRvaro6fBuU-4" target="kSKsc2fcSLRvaro6fBuU-33" edge="1">
          <mxGeometry width="50" height="50" relative="1" as="geometry">
            <mxPoint x="388" y="441" as="sourcePoint" />
            <mxPoint x="230" y="441" as="targetPoint" />
          </mxGeometry>
        </mxCell>
        <mxCell id="kSKsc2fcSLRvaro6fBuU-35" value="" style="endArrow=none;html=1;rounded=0;fontSize=12;startSize=8;endSize=8;curved=1;entryX=0;entryY=0.5;entryDx=0;entryDy=0;exitX=1;exitY=0.5;exitDx=0;exitDy=0;" parent="1" source="kSKsc2fcSLRvaro6fBuU-33" target="kSKsc2fcSLRvaro6fBuU-60" edge="1">
          <mxGeometry width="50" height="50" relative="1" as="geometry">
            <mxPoint x="488" y="541" as="sourcePoint" />
            <mxPoint x="488" y="612" as="targetPoint" />
          </mxGeometry>
        </mxCell>
        <mxCell id="kSKsc2fcSLRvaro6fBuU-37" value="" style="endArrow=none;html=1;rounded=0;fontSize=12;startSize=8;endSize=8;curved=1;entryX=1;entryY=0.5;entryDx=0;entryDy=0;exitX=0;exitY=0.5;exitDx=0;exitDy=0;" parent="1" target="kSKsc2fcSLRvaro6fBuU-39" edge="1">
          <mxGeometry width="50" height="50" relative="1" as="geometry">
            <mxPoint x="975" y="-7" as="sourcePoint" />
            <mxPoint x="1085" y="-178" as="targetPoint" />
          </mxGeometry>
        </mxCell>
        <mxCell id="kSKsc2fcSLRvaro6fBuU-38" value="" style="endArrow=none;html=1;rounded=0;fontSize=12;startSize=8;endSize=8;curved=1;exitX=1;exitY=0.5;exitDx=0;exitDy=0;entryX=0;entryY=0.5;entryDx=0;entryDy=0;" parent="1" target="kSKsc2fcSLRvaro6fBuU-39" edge="1">
          <mxGeometry width="50" height="50" relative="1" as="geometry">
            <mxPoint x="578" y="-7" as="sourcePoint" />
            <mxPoint x="702" y="-91" as="targetPoint" />
          </mxGeometry>
        </mxCell>
        <mxCell id="kSKsc2fcSLRvaro6fBuU-39" value="Peut posséder&lt;div&gt;&lt;u&gt;Vainquant un maitre pokémon&lt;/u&gt;&lt;/div&gt;" style="ellipse;whiteSpace=wrap;html=1;" parent="1" vertex="1">
          <mxGeometry x="697" y="-47" width="120" height="80" as="geometry" />
        </mxCell>
        <mxCell id="kSKsc2fcSLRvaro6fBuU-43" value="Peut posséder&lt;div&gt;&lt;u&gt;nivDresseur&amp;gt;nivDresseurSK&lt;/u&gt;&lt;/div&gt;" style="ellipse;whiteSpace=wrap;html=1;" parent="1" vertex="1">
          <mxGeometry x="1363" y="-38" width="172" height="80" as="geometry" />
        </mxCell>
        <mxCell id="kSKsc2fcSLRvaro6fBuU-44" value="" style="endArrow=none;html=1;rounded=0;fontSize=12;startSize=8;endSize=8;curved=1;exitX=1;exitY=0.25;exitDx=0;exitDy=0;entryX=0;entryY=0;entryDx=0;entryDy=0;" parent="1" source="kSKsc2fcSLRvaro6fBuU-6" target="kSKsc2fcSLRvaro6fBuU-43" edge="1">
          <mxGeometry width="50" height="50" relative="1" as="geometry">
            <mxPoint x="985" y="3" as="sourcePoint" />
            <mxPoint x="827" y="3" as="targetPoint" />
          </mxGeometry>
        </mxCell>
        <mxCell id="kSKsc2fcSLRvaro6fBuU-45" value="" style="endArrow=none;html=1;rounded=0;fontSize=12;startSize=8;endSize=8;curved=1;entryX=0;entryY=1;entryDx=0;entryDy=0;" parent="1" target="kSKsc2fcSLRvaro6fBuU-43" edge="1">
          <mxGeometry width="50" height="50" relative="1" as="geometry">
            <mxPoint x="1178" y="58" as="sourcePoint" />
            <mxPoint x="1085" y="182" as="targetPoint" />
            <Array as="points" />
          </mxGeometry>
        </mxCell>
        <mxCell id="kSKsc2fcSLRvaro6fBuU-46" value="0,1" style="text;strokeColor=none;fillColor=none;html=1;align=center;verticalAlign=middle;whiteSpace=wrap;rounded=0;fontSize=16;" parent="1" vertex="1">
          <mxGeometry x="1198" y="-96" width="60" height="30" as="geometry" />
        </mxCell>
        <mxCell id="kSKsc2fcSLRvaro6fBuU-47" value="0,1" style="text;strokeColor=none;fillColor=none;html=1;align=center;verticalAlign=middle;whiteSpace=wrap;rounded=0;fontSize=16;" parent="1" vertex="1">
          <mxGeometry x="1189" y="19" width="60" height="30" as="geometry" />
        </mxCell>
        <mxCell id="kSKsc2fcSLRvaro6fBuU-52" value="1,1" style="text;strokeColor=none;fillColor=none;html=1;align=center;verticalAlign=middle;whiteSpace=wrap;rounded=0;fontSize=16;" parent="1" vertex="1">
          <mxGeometry x="485" y="275" width="60" height="30" as="geometry" />
        </mxCell>
        <mxCell id="kSKsc2fcSLRvaro6fBuU-53" value="1,1" style="text;strokeColor=none;fillColor=none;html=1;align=center;verticalAlign=middle;whiteSpace=wrap;rounded=0;fontSize=16;" parent="1" vertex="1">
          <mxGeometry x="485" y="113" width="60" height="30" as="geometry" />
        </mxCell>
        <mxCell id="kSKsc2fcSLRvaro6fBuU-57" value="" style="endArrow=none;html=1;rounded=0;fontSize=12;startSize=8;endSize=8;curved=1;entryX=0;entryY=0.5;entryDx=0;entryDy=0;exitX=1;exitY=0.5;exitDx=0;exitDy=0;" parent="1" source="kSKsc2fcSLRvaro6fBuU-22" target="kSKsc2fcSLRvaro6fBuU-5" edge="1">
          <mxGeometry width="50" height="50" relative="1" as="geometry">
            <mxPoint x="388" y="441" as="sourcePoint" />
            <mxPoint x="77" y="441" as="targetPoint" />
          </mxGeometry>
        </mxCell>
        <mxCell id="kSKsc2fcSLRvaro6fBuU-59" value="1,1" style="text;strokeColor=none;fillColor=none;html=1;align=center;verticalAlign=middle;whiteSpace=wrap;rounded=0;fontSize=16;" parent="1" vertex="1">
          <mxGeometry x="619" y="170" width="60" height="30" as="geometry" />
        </mxCell>
        <mxCell id="kSKsc2fcSLRvaro6fBuU-60" value="POKEMON" style="swimlane;whiteSpace=wrap;html=1;" parent="1" vertex="1">
          <mxGeometry x="675" y="711" width="200" height="200" as="geometry">
            <mxRectangle x="6" y="35" width="178" height="26" as="alternateBounds" />
          </mxGeometry>
        </mxCell>
        <mxCell id="kSKsc2fcSLRvaro6fBuU-61" value="" style="endArrow=none;html=1;rounded=0;fontSize=12;startSize=8;endSize=8;curved=1;exitX=0.5;exitY=0;exitDx=0;exitDy=0;entryX=0.5;entryY=1;entryDx=0;entryDy=0;" parent="1" source="kSKsc2fcSLRvaro6fBuU-60" target="kSKsc2fcSLRvaro6fBuU-67" edge="1">
          <mxGeometry width="50" height="50" relative="1" as="geometry">
            <mxPoint x="488" y="541" as="sourcePoint" />
            <mxPoint x="811" y="526" as="targetPoint" />
            <Array as="points" />
          </mxGeometry>
        </mxCell>
        <mxCell id="kSKsc2fcSLRvaro6fBuU-62" value="0,1" style="text;strokeColor=none;fillColor=none;html=1;align=center;verticalAlign=middle;whiteSpace=wrap;rounded=0;fontSize=16;" parent="1" vertex="1">
          <mxGeometry x="418" y="652" width="60" height="30" as="geometry" />
        </mxCell>
        <mxCell id="kSKsc2fcSLRvaro6fBuU-63" value="1,1" style="text;strokeColor=none;fillColor=none;html=1;align=center;verticalAlign=middle;whiteSpace=wrap;rounded=0;fontSize=16;" parent="1" vertex="1">
          <mxGeometry x="535" y="776" width="60" height="30" as="geometry" />
        </mxCell>
        <mxCell id="kSKsc2fcSLRvaro6fBuU-64" value="1,1" style="text;strokeColor=none;fillColor=none;html=1;align=center;verticalAlign=middle;whiteSpace=wrap;rounded=0;fontSize=16;" parent="1" vertex="1">
          <mxGeometry x="775" y="656" width="60" height="30" as="geometry" />
        </mxCell>
        <mxCell id="kSKsc2fcSLRvaro6fBuU-67" value="Peut posséder&lt;div&gt;&lt;u&gt;Pokemon simple&lt;/u&gt;&lt;/div&gt;" style="ellipse;whiteSpace=wrap;html=1;" parent="1" vertex="1">
          <mxGeometry x="715" y="495" width="120" height="80" as="geometry" />
        </mxCell>
        <mxCell id="kSKsc2fcSLRvaro6fBuU-68" value="" style="endArrow=none;html=1;rounded=0;fontSize=12;startSize=8;endSize=8;curved=1;exitX=0;exitY=0.5;exitDx=0;exitDy=0;entryX=1;entryY=0.5;entryDx=0;entryDy=0;" parent="1" source="kSKsc2fcSLRvaro6fBuU-67" target="kSKsc2fcSLRvaro6fBuU-4" edge="1">
          <mxGeometry width="50" height="50" relative="1" as="geometry">
            <mxPoint x="947" y="536" as="sourcePoint" />
            <mxPoint x="821" y="536" as="targetPoint" />
          </mxGeometry>
        </mxCell>
        <mxCell id="kSKsc2fcSLRvaro6fBuU-69" value="1,N" style="text;strokeColor=none;fillColor=none;html=1;align=center;verticalAlign=middle;whiteSpace=wrap;rounded=0;fontSize=16;" parent="1" vertex="1">
          <mxGeometry x="585" y="499" width="60" height="30" as="geometry" />
        </mxCell>
        <mxCell id="kSKsc2fcSLRvaro6fBuU-70" value="1,N" style="text;strokeColor=none;fillColor=none;html=1;align=center;verticalAlign=middle;whiteSpace=wrap;rounded=0;fontSize=16;" parent="1" vertex="1">
          <mxGeometry x="871" y="-43" width="60" height="30" as="geometry" />
        </mxCell>
        <mxCell id="kSKsc2fcSLRvaro6fBuU-71" value="1,1" style="text;strokeColor=none;fillColor=none;html=1;align=center;verticalAlign=middle;whiteSpace=wrap;rounded=0;fontSize=16;" parent="1" vertex="1">
          <mxGeometry x="608" y="-47" width="60" height="30" as="geometry" />
        </mxCell>
        <mxCell id="kSKsc2fcSLRvaro6fBuU-73" value="Combat" style="ellipse;whiteSpace=wrap;html=1;" parent="1" vertex="1">
          <mxGeometry x="1015" y="195" width="120" height="80" as="geometry" />
        </mxCell>
        <mxCell id="kSKsc2fcSLRvaro6fBuU-75" value="" style="endArrow=none;html=1;rounded=0;fontSize=12;startSize=8;endSize=8;curved=1;entryX=1;entryY=0.5;entryDx=0;entryDy=0;exitX=0;exitY=0.5;exitDx=0;exitDy=0;" parent="1" source="kSKsc2fcSLRvaro6fBuU-73" target="kSKsc2fcSLRvaro6fBuU-5" edge="1">
          <mxGeometry width="50" height="50" relative="1" as="geometry">
            <mxPoint x="548" y="220" as="sourcePoint" />
            <mxPoint x="707" y="218" as="targetPoint" />
          </mxGeometry>
        </mxCell>
        <mxCell id="kSKsc2fcSLRvaro6fBuU-76" value="" style="endArrow=none;html=1;rounded=0;fontSize=12;startSize=8;endSize=8;curved=1;entryX=0.5;entryY=1;entryDx=0;entryDy=0;exitX=0.5;exitY=0;exitDx=0;exitDy=0;" parent="1" source="kSKsc2fcSLRvaro6fBuU-73" target="kSKsc2fcSLRvaro6fBuU-6" edge="1">
          <mxGeometry width="50" height="50" relative="1" as="geometry">
            <mxPoint x="1025" y="218" as="sourcePoint" />
            <mxPoint x="907" y="218" as="targetPoint" />
          </mxGeometry>
        </mxCell>
        <mxCell id="kSKsc2fcSLRvaro6fBuU-77" value="1,1" style="text;strokeColor=none;fillColor=none;html=1;align=center;verticalAlign=middle;whiteSpace=wrap;rounded=0;fontSize=16;" parent="1" vertex="1">
          <mxGeometry x="1015" y="94" width="60" height="30" as="geometry" />
        </mxCell>
        <mxCell id="kSKsc2fcSLRvaro6fBuU-78" value="1,1" style="text;strokeColor=none;fillColor=none;html=1;align=center;verticalAlign=middle;whiteSpace=wrap;rounded=0;fontSize=16;" parent="1" vertex="1">
          <mxGeometry x="909" y="173" width="60" height="30" as="geometry" />
        </mxCell>
        <mxCell id="kSKsc2fcSLRvaro6fBuU-79" value="" style="endArrow=none;html=1;rounded=0;fontSize=12;startSize=8;endSize=8;curved=1;entryX=1;entryY=0;entryDx=0;entryDy=0;exitX=0.5;exitY=1;exitDx=0;exitDy=0;" parent="1" source="kSKsc2fcSLRvaro6fBuU-73" target="kSKsc2fcSLRvaro6fBuU-4" edge="1">
          <mxGeometry width="50" height="50" relative="1" as="geometry">
            <mxPoint x="1025" y="218" as="sourcePoint" />
            <mxPoint x="907" y="218" as="targetPoint" />
          </mxGeometry>
        </mxCell>
        <mxCell id="kSKsc2fcSLRvaro6fBuU-80" value="1,1" style="text;strokeColor=none;fillColor=none;html=1;align=center;verticalAlign=middle;whiteSpace=wrap;rounded=0;fontSize=16;" parent="1" vertex="1">
          <mxGeometry x="992" y="311" width="60" height="30" as="geometry" />
        </mxCell>
        <mxCell id="kbHxSfYnXteUFWlpL1C_-2" value="Possède" style="ellipse;whiteSpace=wrap;html=1;" parent="1" vertex="1">
          <mxGeometry x="1095" y="771" width="120" height="80" as="geometry" />
        </mxCell>
        <mxCell id="kbHxSfYnXteUFWlpL1C_-3" value="" style="endArrow=none;html=1;rounded=0;fontSize=12;startSize=8;endSize=8;curved=1;exitX=1;exitY=0.5;exitDx=0;exitDy=0;entryX=0;entryY=0.5;entryDx=0;entryDy=0;" parent="1" source="kSKsc2fcSLRvaro6fBuU-60" target="kbHxSfYnXteUFWlpL1C_-2" edge="1">
          <mxGeometry width="50" height="50" relative="1" as="geometry">
            <mxPoint x="785" y="721" as="sourcePoint" />
            <mxPoint x="785" y="585" as="targetPoint" />
            <Array as="points" />
          </mxGeometry>
        </mxCell>
        <mxCell id="kbHxSfYnXteUFWlpL1C_-5" value="" style="endArrow=none;html=1;rounded=0;fontSize=12;startSize=8;endSize=8;curved=1;exitX=0.5;exitY=0;exitDx=0;exitDy=0;" parent="1" source="kbHxSfYnXteUFWlpL1C_-2" edge="1">
          <mxGeometry width="50" height="50" relative="1" as="geometry">
            <mxPoint x="1085" y="205" as="sourcePoint" />
            <mxPoint x="1153" y="86" as="targetPoint" />
          </mxGeometry>
        </mxCell>
        <mxCell id="kbHxSfYnXteUFWlpL1C_-6" value="0,N" style="text;strokeColor=none;fillColor=none;html=1;align=center;verticalAlign=middle;whiteSpace=wrap;rounded=0;fontSize=16;" parent="1" vertex="1">
          <mxGeometry x="1155" y="101" width="60" height="30" as="geometry" />
        </mxCell>
        <mxCell id="kbHxSfYnXteUFWlpL1C_-7" value="1,1" style="text;strokeColor=none;fillColor=none;html=1;align=center;verticalAlign=middle;whiteSpace=wrap;rounded=0;fontSize=16;" parent="1" vertex="1">
          <mxGeometry x="904" y="771" width="60" height="30" as="geometry" />
        </mxCell>
        <mxCell id="Avj-mtxQxJX6TqOhGgxO-1" value="Champion" style="swimlane;whiteSpace=wrap;html=1;startSize=23;" vertex="1" parent="1">
          <mxGeometry x="975" y="-408" width="200" height="200" as="geometry">
            <mxRectangle x="6" y="35" width="178" height="26" as="alternateBounds" />
          </mxGeometry>
        </mxCell>
      </root>
    </mxGraphModel>
  </diagram>
</mxfile>
